<mxfile host="drawio-plugin" modified="2022-12-10T03:57:48.271Z" agent="5.0 (Windows NT 6.2; Win64; x64) AppleWebKit/537.36 (KHTML, like Gecko) Chrome/98.0.4758.102 Safari/537.36" etag="vnHRFBmJcGarTzg3Y3H6" version="15.5.4" type="embed" pages="3"><diagram id="7SQBeg8-NmMNRBUi52EG" name="Board"><mxGraphModel dx="1715" dy="2273" grid="1" gridSize="10" guides="1" tooltips="1" connect="1" arrows="1" fold="1" page="1" pageScale="1" pageWidth="850" pageHeight="1100" math="0" shadow="0"><root><mxCell id="0"/><mxCell id="1" parent="0"/><mxCell id="3GtVR0VW-QDkIM4Xzwnb-1" value="Board" style="swimlane;fontStyle=1;align=center;verticalAlign=top;childLayout=stackLayout;horizontal=1;startSize=26;horizontalStack=0;resizeParent=1;resizeParentMax=0;resizeLast=0;collapsible=1;marginBottom=0;" parent="1" vertex="1"><mxGeometry x="220" y="-70" width="340" height="840" as="geometry"/></mxCell><mxCell id="3GtVR0VW-QDkIM4Xzwnb-2" value="+ MIN_WORD_SIZE: int = 2" style="text;strokeColor=none;fillColor=none;align=left;verticalAlign=top;spacingLeft=4;spacingRight=4;overflow=hidden;rotatable=0;points=[[0,0.5],[1,0.5]];portConstraint=eastwest;fontStyle=6" parent="3GtVR0VW-QDkIM4Xzwnb-1" vertex="1"><mxGeometry y="26" width="340" height="24" as="geometry"/></mxCell><mxCell id="3GtVR0VW-QDkIM4Xzwnb-3" value="+  START_TILE_POINT: Point" style="text;strokeColor=none;fillColor=none;align=left;verticalAlign=top;spacingLeft=4;spacingRight=4;overflow=hidden;rotatable=0;points=[[0,0.5],[1,0.5]];portConstraint=eastwest;fontStyle=6" parent="3GtVR0VW-QDkIM4Xzwnb-1" vertex="1"><mxGeometry y="50" width="340" height="26" as="geometry"/></mxCell><mxCell id="pVLUgfRsohdtI-eY0-8A-12" value="- lastPlacedWords: List&lt;BoardWord&gt;" style="text;strokeColor=none;fillColor=none;align=left;verticalAlign=top;spacingLeft=4;spacingRight=4;overflow=hidden;rotatable=0;points=[[0,0.5],[1,0.5]];portConstraint=eastwest;" parent="3GtVR0VW-QDkIM4Xzwnb-1" vertex="1"><mxGeometry y="76" width="340" height="26" as="geometry"/></mxCell><mxCell id="pVLUgfRsohdtI-eY0-8A-14" value="- boardGrid: Grid2DArray&lt;BoardTile&gt; " style="text;strokeColor=none;fillColor=none;align=left;verticalAlign=top;spacingLeft=4;spacingRight=4;overflow=hidden;rotatable=0;points=[[0,0.5],[1,0.5]];portConstraint=eastwest;" parent="3GtVR0VW-QDkIM4Xzwnb-1" vertex="1"><mxGeometry y="102" width="340" height="26" as="geometry"/></mxCell><mxCell id="pVLUgfRsohdtI-eY0-8A-13" value="- validator: BoardValidator" style="text;strokeColor=none;fillColor=none;align=left;verticalAlign=top;spacingLeft=4;spacingRight=4;overflow=hidden;rotatable=0;points=[[0,0.5],[1,0.5]];portConstraint=eastwest;" parent="3GtVR0VW-QDkIM4Xzwnb-1" vertex="1"><mxGeometry y="128" width="340" height="26" as="geometry"/></mxCell><mxCell id="3GtVR0VW-QDkIM4Xzwnb-4" value="" style="line;strokeWidth=1;fillColor=none;align=left;verticalAlign=middle;spacingTop=-1;spacingLeft=3;spacingRight=3;rotatable=0;labelPosition=right;points=[];portConstraint=eastwest;" parent="3GtVR0VW-QDkIM4Xzwnb-1" vertex="1"><mxGeometry y="154" width="340" height="8" as="geometry"/></mxCell><mxCell id="3GtVR0VW-QDkIM4Xzwnb-5" value="+ Board(boolean)" style="text;strokeColor=none;fillColor=none;align=left;verticalAlign=top;spacingLeft=4;spacingRight=4;overflow=hidden;rotatable=0;points=[[0,0.5],[1,0.5]];portConstraint=eastwest;" parent="3GtVR0VW-QDkIM4Xzwnb-1" vertex="1"><mxGeometry y="162" width="340" height="26" as="geometry"/></mxCell><mxCell id="3GtVR0VW-QDkIM4Xzwnb-6" value="+ isValidPlacement(BoardPlaceEvent): BoardValidator.Status" style="text;strokeColor=none;fillColor=none;align=left;verticalAlign=top;spacingLeft=4;spacingRight=4;overflow=hidden;rotatable=0;points=[[0,0.5],[1,0.5]];portConstraint=eastwest;" parent="3GtVR0VW-QDkIM4Xzwnb-1" vertex="1"><mxGeometry y="188" width="340" height="26" as="geometry"/></mxCell><mxCell id="3GtVR0VW-QDkIM4Xzwnb-7" value="+ placeWord(BoardPlaceEvent): int" style="text;strokeColor=none;fillColor=none;align=left;verticalAlign=top;spacingLeft=4;spacingRight=4;overflow=hidden;rotatable=0;points=[[0,0.5],[1,0.5]];portConstraint=eastwest;" parent="3GtVR0VW-QDkIM4Xzwnb-1" vertex="1"><mxGeometry y="214" width="340" height="26" as="geometry"/></mxCell><mxCell id="AjdBSY9YLioFSN2WO----1" value="+ toString(): String" style="text;strokeColor=none;fillColor=none;align=left;verticalAlign=top;spacingLeft=4;spacingRight=4;overflow=hidden;rotatable=0;points=[[0,0.5],[1,0.5]];portConstraint=eastwest;" parent="3GtVR0VW-QDkIM4Xzwnb-1" vertex="1"><mxGeometry y="240" width="340" height="26" as="geometry"/></mxCell><mxCell id="29" value="+ clone() : Board" style="text;strokeColor=none;fillColor=none;align=left;verticalAlign=top;spacingLeft=4;spacingRight=4;overflow=hidden;rotatable=0;points=[[0,0.5],[1,0.5]];portConstraint=eastwest;" parent="3GtVR0VW-QDkIM4Xzwnb-1" vertex="1"><mxGeometry y="266" width="340" height="26" as="geometry"/></mxCell><mxCell id="31" value="+ getBoardTile(Point): BoardTile" style="text;strokeColor=none;fillColor=none;align=left;verticalAlign=top;spacingLeft=4;spacingRight=4;overflow=hidden;rotatable=0;points=[[0,0.5],[1,0.5]];portConstraint=eastwest;" vertex="1" parent="3GtVR0VW-QDkIM4Xzwnb-1"><mxGeometry y="292" width="340" height="26" as="geometry"/></mxCell><mxCell id="pVLUgfRsohdtI-eY0-8A-10" value="+ getBoardTiles(): ArrayList&lt;BoardTile&gt;" style="text;strokeColor=none;fillColor=none;align=left;verticalAlign=top;spacingLeft=4;spacingRight=4;overflow=hidden;rotatable=0;points=[[0,0.5],[1,0.5]];portConstraint=eastwest;" parent="3GtVR0VW-QDkIM4Xzwnb-1" vertex="1"><mxGeometry y="318" width="340" height="26" as="geometry"/></mxCell><mxCell id="32" value="+ setDefaultBoard(): void" style="text;strokeColor=none;fillColor=none;align=left;verticalAlign=top;spacingLeft=4;spacingRight=4;overflow=hidden;rotatable=0;points=[[0,0.5],[1,0.5]];portConstraint=eastwest;" vertex="1" parent="3GtVR0VW-QDkIM4Xzwnb-1"><mxGeometry y="344" width="340" height="26" as="geometry"/></mxCell><mxCell id="pVLUgfRsohdtI-eY0-8A-9" value="+ setBoard(Board): void" style="text;strokeColor=none;fillColor=none;align=left;verticalAlign=top;spacingLeft=4;spacingRight=4;overflow=hidden;rotatable=0;points=[[0,0.5],[1,0.5]];portConstraint=eastwest;" parent="3GtVR0VW-QDkIM4Xzwnb-1" vertex="1"><mxGeometry y="370" width="340" height="30" as="geometry"/></mxCell><mxCell id="34" value="+ getPlacementScore(BoardPlaceEvent): int" style="text;strokeColor=none;fillColor=none;align=left;verticalAlign=top;spacingLeft=4;spacingRight=4;overflow=hidden;rotatable=0;points=[[0,0.5],[1,0.5]];portConstraint=eastwest;" vertex="1" parent="3GtVR0VW-QDkIM4Xzwnb-1"><mxGeometry y="400" width="340" height="20" as="geometry"/></mxCell><mxCell id="sT7uKw7CB1w0icW3DQVC-3" value="~ isStartTile(Point): boolean" style="text;strokeColor=none;fillColor=none;align=left;verticalAlign=top;spacingLeft=4;spacingRight=4;overflow=hidden;rotatable=0;points=[[0,0.5],[1,0.5]];portConstraint=eastwest;" parent="3GtVR0VW-QDkIM4Xzwnb-1" vertex="1"><mxGeometry y="420" width="340" height="26" as="geometry"/></mxCell><mxCell id="sT7uKw7CB1w0icW3DQVC-4" value="~ isBoardEmpty(): boolean" style="text;strokeColor=none;fillColor=none;align=left;verticalAlign=top;spacingLeft=4;spacingRight=4;overflow=hidden;rotatable=0;points=[[0,0.5],[1,0.5]];portConstraint=eastwest;" parent="3GtVR0VW-QDkIM4Xzwnb-1" vertex="1"><mxGeometry y="446" width="340" height="26" as="geometry"/></mxCell><mxCell id="sT7uKw7CB1w0icW3DQVC-5" value="~ isTaken(Point): boolean" style="text;strokeColor=none;fillColor=none;align=left;verticalAlign=top;spacingLeft=4;spacingRight=4;overflow=hidden;rotatable=0;points=[[0,0.5],[1,0.5]];portConstraint=eastwest;" parent="3GtVR0VW-QDkIM4Xzwnb-1" vertex="1"><mxGeometry y="472" width="340" height="26" as="geometry"/></mxCell><mxCell id="sT7uKw7CB1w0icW3DQVC-6" value="~ getPlacedWords(BoardPlaceEvent): boolean" style="text;strokeColor=none;fillColor=none;align=left;verticalAlign=top;spacingLeft=4;spacingRight=4;overflow=hidden;rotatable=0;points=[[0,0.5],[1,0.5]];portConstraint=eastwest;" parent="3GtVR0VW-QDkIM4Xzwnb-1" vertex="1"><mxGeometry y="498" width="340" height="26" as="geometry"/></mxCell><mxCell id="pVLUgfRsohdtI-eY0-8A-1" value="~ getFirstNonTakenPoint(Direction, Point): Point" style="text;strokeColor=none;fillColor=none;align=left;verticalAlign=top;spacingLeft=4;spacingRight=4;overflow=hidden;rotatable=0;points=[[0,0.5],[1,0.5]];portConstraint=eastwest;" parent="3GtVR0VW-QDkIM4Xzwnb-1" vertex="1"><mxGeometry y="524" width="340" height="26" as="geometry"/></mxCell><mxCell id="sT7uKw7CB1w0icW3DQVC-7" value="- copySelfGrid(): Grid2DArray&lt;BoardTile&gt;" style="text;strokeColor=none;fillColor=none;align=left;verticalAlign=top;spacingLeft=4;spacingRight=4;overflow=hidden;rotatable=0;points=[[0,0.5],[1,0.5]];portConstraint=eastwest;" parent="3GtVR0VW-QDkIM4Xzwnb-1" vertex="1"><mxGeometry y="550" width="340" height="26" as="geometry"/></mxCell><mxCell id="pVLUgfRsohdtI-eY0-8A-2" value="- setWordTiles(BoardPlaceEvent)" style="text;strokeColor=none;fillColor=none;align=left;verticalAlign=top;spacingLeft=4;spacingRight=4;overflow=hidden;rotatable=0;points=[[0,0.5],[1,0.5]];portConstraint=eastwest;" parent="3GtVR0VW-QDkIM4Xzwnb-1" vertex="1"><mxGeometry y="576" width="340" height="26" as="geometry"/></mxCell><mxCell id="pVLUgfRsohdtI-eY0-8A-3" value="- initializeBlankGrid()" style="text;strokeColor=none;fillColor=none;align=left;verticalAlign=top;spacingLeft=4;spacingRight=4;overflow=hidden;rotatable=0;points=[[0,0.5],[1,0.5]];portConstraint=eastwest;" parent="3GtVR0VW-QDkIM4Xzwnb-1" vertex="1"><mxGeometry y="602" width="340" height="26" as="geometry"/></mxCell><mxCell id="pVLUgfRsohdtI-eY0-8A-4" value="- setPremiumTiles()" style="text;strokeColor=none;fillColor=none;align=left;verticalAlign=top;spacingLeft=4;spacingRight=4;overflow=hidden;rotatable=0;points=[[0,0.5],[1,0.5]];portConstraint=eastwest;" parent="3GtVR0VW-QDkIM4Xzwnb-1" vertex="1"><mxGeometry y="628" width="340" height="26" as="geometry"/></mxCell><mxCell id="pVLUgfRsohdtI-eY0-8A-5" value="- placeTile(Point, Letter)" style="text;strokeColor=none;fillColor=none;align=left;verticalAlign=top;spacingLeft=4;spacingRight=4;overflow=hidden;rotatable=0;points=[[0,0.5],[1,0.5]];portConstraint=eastwest;" parent="3GtVR0VW-QDkIM4Xzwnb-1" vertex="1"><mxGeometry y="654" width="340" height="26" as="geometry"/></mxCell><mxCell id="pVLUgfRsohdtI-eY0-8A-6" value="- getPlacedScore(List&lt;BoardWord&gt; newWords): int" style="text;strokeColor=none;fillColor=none;align=left;verticalAlign=top;spacingLeft=4;spacingRight=4;overflow=hidden;rotatable=0;points=[[0,0.5],[1,0.5]];portConstraint=eastwest;" parent="3GtVR0VW-QDkIM4Xzwnb-1" vertex="1"><mxGeometry y="680" width="340" height="26" as="geometry"/></mxCell><mxCell id="pVLUgfRsohdtI-eY0-8A-7" value="- getTileMulti(BoardTile)" style="text;strokeColor=none;fillColor=none;align=left;verticalAlign=top;spacingLeft=4;spacingRight=4;overflow=hidden;rotatable=0;points=[[0,0.5],[1,0.5]];portConstraint=eastwest;" parent="3GtVR0VW-QDkIM4Xzwnb-1" vertex="1"><mxGeometry y="706" width="340" height="26" as="geometry"/></mxCell><mxCell id="pVLUgfRsohdtI-eY0-8A-8" value="- getTileScore(BoardTile)" style="text;strokeColor=none;fillColor=none;align=left;verticalAlign=top;spacingLeft=4;spacingRight=4;overflow=hidden;rotatable=0;points=[[0,0.5],[1,0.5]];portConstraint=eastwest;" parent="3GtVR0VW-QDkIM4Xzwnb-1" vertex="1"><mxGeometry y="732" width="340" height="26" as="geometry"/></mxCell><mxCell id="33" value="- getCurrentWords(): List&lt;BoardWord&gt;" style="text;strokeColor=none;fillColor=none;align=left;verticalAlign=top;spacingLeft=4;spacingRight=4;overflow=hidden;rotatable=0;points=[[0,0.5],[1,0.5]];portConstraint=eastwest;" vertex="1" parent="3GtVR0VW-QDkIM4Xzwnb-1"><mxGeometry y="758" width="340" height="22" as="geometry"/></mxCell><mxCell id="35" value="- setTile(Point, BoardTile): void" style="text;strokeColor=none;fillColor=none;align=left;verticalAlign=top;spacingLeft=4;spacingRight=4;overflow=hidden;rotatable=0;points=[[0,0.5],[1,0.5]];portConstraint=eastwest;" vertex="1" parent="3GtVR0VW-QDkIM4Xzwnb-1"><mxGeometry y="780" width="340" height="20" as="geometry"/></mxCell><mxCell id="36" value="- setBoardGrid(Grid2DArray): void" style="text;strokeColor=none;fillColor=none;align=left;verticalAlign=top;spacingLeft=4;spacingRight=4;overflow=hidden;rotatable=0;points=[[0,0.5],[1,0.5]];portConstraint=eastwest;" vertex="1" parent="3GtVR0VW-QDkIM4Xzwnb-1"><mxGeometry y="800" width="340" height="20" as="geometry"/></mxCell><mxCell id="37" value="- setLastPlacedWords(List&lt;BoardWord&gt;): void" style="text;strokeColor=none;fillColor=none;align=left;verticalAlign=top;spacingLeft=4;spacingRight=4;overflow=hidden;rotatable=0;points=[[0,0.5],[1,0.5]];portConstraint=eastwest;" vertex="1" parent="3GtVR0VW-QDkIM4Xzwnb-1"><mxGeometry y="820" width="340" height="20" as="geometry"/></mxCell><mxCell id="3GtVR0VW-QDkIM4Xzwnb-8" value="&lt;&lt;enum&gt;&gt;&#10;Direction" style="swimlane;fontStyle=1;align=center;verticalAlign=top;childLayout=stackLayout;horizontal=1;startSize=40;horizontalStack=0;resizeParent=1;resizeParentMax=0;resizeLast=0;collapsible=1;marginBottom=0;" parent="1" vertex="1"><mxGeometry x="20" y="332" width="160" height="152" as="geometry"/></mxCell><mxCell id="3GtVR0VW-QDkIM4Xzwnb-9" value="+ RIGHT" style="text;strokeColor=none;fillColor=none;align=left;verticalAlign=top;spacingLeft=4;spacingRight=4;overflow=hidden;rotatable=0;points=[[0,0.5],[1,0.5]];portConstraint=eastwest;" parent="3GtVR0VW-QDkIM4Xzwnb-8" vertex="1"><mxGeometry y="40" width="160" height="26" as="geometry"/></mxCell><mxCell id="3GtVR0VW-QDkIM4Xzwnb-10" value="+ DOWN" style="text;strokeColor=none;fillColor=none;align=left;verticalAlign=top;spacingLeft=4;spacingRight=4;overflow=hidden;rotatable=0;points=[[0,0.5],[1,0.5]];portConstraint=eastwest;" parent="3GtVR0VW-QDkIM4Xzwnb-8" vertex="1"><mxGeometry y="66" width="160" height="26" as="geometry"/></mxCell><mxCell id="3GtVR0VW-QDkIM4Xzwnb-11" value="" style="line;strokeWidth=1;fillColor=none;align=left;verticalAlign=middle;spacingTop=-1;spacingLeft=3;spacingRight=3;rotatable=0;labelPosition=right;points=[];portConstraint=eastwest;" parent="3GtVR0VW-QDkIM4Xzwnb-8" vertex="1"><mxGeometry y="92" width="160" height="8" as="geometry"/></mxCell><mxCell id="3GtVR0VW-QDkIM4Xzwnb-12" value="+ Direction(String)" style="text;strokeColor=none;fillColor=none;align=left;verticalAlign=top;spacingLeft=4;spacingRight=4;overflow=hidden;rotatable=0;points=[[0,0.5],[1,0.5]];portConstraint=eastwest;" parent="3GtVR0VW-QDkIM4Xzwnb-8" vertex="1"><mxGeometry y="100" width="160" height="26" as="geometry"/></mxCell><mxCell id="3GtVR0VW-QDkIM4Xzwnb-13" value="+ toString(): String" style="text;strokeColor=none;fillColor=none;align=left;verticalAlign=top;spacingLeft=4;spacingRight=4;overflow=hidden;rotatable=0;points=[[0,0.5],[1,0.5]];portConstraint=eastwest;" parent="3GtVR0VW-QDkIM4Xzwnb-8" vertex="1"><mxGeometry y="126" width="160" height="26" as="geometry"/></mxCell><mxCell id="3GtVR0VW-QDkIM4Xzwnb-14" value="" style="endArrow=open;startArrow=circlePlus;endFill=0;startFill=0;endSize=8;html=1;rounded=0;" parent="1" source="3GtVR0VW-QDkIM4Xzwnb-1" target="3GtVR0VW-QDkIM4Xzwnb-8" edge="1"><mxGeometry width="160" relative="1" as="geometry"><mxPoint x="290" y="60" as="sourcePoint"/><mxPoint x="220" y="160" as="targetPoint"/></mxGeometry></mxCell><mxCell id="2" value="BoardValidator" style="swimlane;fontStyle=1;align=center;verticalAlign=top;childLayout=stackLayout;horizontal=1;startSize=26;horizontalStack=0;resizeParent=1;resizeParentMax=0;resizeLast=0;collapsible=1;marginBottom=0;" parent="1" vertex="1"><mxGeometry x="240" y="810" width="280" height="164" as="geometry"/></mxCell><mxCell id="3" value="- boardToValidate: Board&#10;" style="text;strokeColor=none;fillColor=none;align=left;verticalAlign=top;spacingLeft=4;spacingRight=4;overflow=hidden;rotatable=0;points=[[0,0.5],[1,0.5]];portConstraint=eastwest;" parent="2" vertex="1"><mxGeometry y="26" width="280" height="26" as="geometry"/></mxCell><mxCell id="4" value="- DictionaryHandler: dictionary" style="text;strokeColor=none;fillColor=none;align=left;verticalAlign=top;spacingLeft=4;spacingRight=4;overflow=hidden;rotatable=0;points=[[0,0.5],[1,0.5]];portConstraint=eastwest;" parent="2" vertex="1"><mxGeometry y="52" width="280" height="26" as="geometry"/></mxCell><mxCell id="5" value="" style="line;strokeWidth=1;fillColor=none;align=left;verticalAlign=middle;spacingTop=-1;spacingLeft=3;spacingRight=3;rotatable=0;labelPosition=right;points=[];portConstraint=eastwest;" parent="2" vertex="1"><mxGeometry y="78" width="280" height="8" as="geometry"/></mxCell><mxCell id="6" value="+ BoardValidator(Board)" style="text;strokeColor=none;fillColor=none;align=left;verticalAlign=top;spacingLeft=4;spacingRight=4;overflow=hidden;rotatable=0;points=[[0,0.5],[1,0.5]];portConstraint=eastwest;" parent="2" vertex="1"><mxGeometry y="86" width="280" height="26" as="geometry"/></mxCell><mxCell id="7" value="+ isValidLocation(BoardPlaceEvent): Status" style="text;strokeColor=none;fillColor=none;align=left;verticalAlign=top;spacingLeft=4;spacingRight=4;overflow=hidden;rotatable=0;points=[[0,0.5],[1,0.5]];portConstraint=eastwest;" parent="2" vertex="1"><mxGeometry y="112" width="280" height="26" as="geometry"/></mxCell><mxCell id="8" value="+ isInvalidWordInBoard(List&lt;BoardWord&gt;): Status" style="text;strokeColor=none;fillColor=none;align=left;verticalAlign=top;spacingLeft=4;spacingRight=4;overflow=hidden;rotatable=0;points=[[0,0.5],[1,0.5]];portConstraint=eastwest;" parent="2" vertex="1"><mxGeometry y="138" width="280" height="26" as="geometry"/></mxCell><mxCell id="10" value="" style="endArrow=diamondThin;endFill=1;endSize=24;html=1;rounded=0;" parent="1" source="2" target="3GtVR0VW-QDkIM4Xzwnb-1" edge="1"><mxGeometry width="160" relative="1" as="geometry"><mxPoint x="340" y="350" as="sourcePoint"/><mxPoint x="640" y="300" as="targetPoint"/></mxGeometry></mxCell><mxCell id="11" value="Grid2DArray&lt;T&gt;" style="swimlane;fontStyle=1;align=center;verticalAlign=top;childLayout=stackLayout;horizontal=1;startSize=26;horizontalStack=0;resizeParent=1;resizeParentMax=0;resizeLast=0;collapsible=1;marginBottom=0;" parent="1" vertex="1"><mxGeometry x="610" y="287" width="200" height="242" as="geometry"/></mxCell><mxCell id="12" value="- size: int" style="text;strokeColor=none;fillColor=none;align=left;verticalAlign=top;spacingLeft=4;spacingRight=4;overflow=hidden;rotatable=0;points=[[0,0.5],[1,0.5]];portConstraint=eastwest;fontStyle=4" parent="11" vertex="1"><mxGeometry y="26" width="200" height="26" as="geometry"/></mxCell><mxCell id="13" value="- array2D: ArrayList&lt;ArrayList&lt;T&gt;&gt;" style="text;strokeColor=none;fillColor=none;align=left;verticalAlign=top;spacingLeft=4;spacingRight=4;overflow=hidden;rotatable=0;points=[[0,0.5],[1,0.5]];portConstraint=eastwest;fontStyle=4" parent="11" vertex="1"><mxGeometry y="52" width="200" height="26" as="geometry"/></mxCell><mxCell id="14" value="" style="line;strokeWidth=1;fillColor=none;align=left;verticalAlign=middle;spacingTop=-1;spacingLeft=3;spacingRight=3;rotatable=0;labelPosition=right;points=[];portConstraint=eastwest;" parent="11" vertex="1"><mxGeometry y="78" width="200" height="8" as="geometry"/></mxCell><mxCell id="15" value="+ Gird2DArray(int)" style="text;strokeColor=none;fillColor=none;align=left;verticalAlign=top;spacingLeft=4;spacingRight=4;overflow=hidden;rotatable=0;points=[[0,0.5],[1,0.5]];portConstraint=eastwest;" parent="11" vertex="1"><mxGeometry y="86" width="200" height="26" as="geometry"/></mxCell><mxCell id="16" value="+ get(Point): T" style="text;strokeColor=none;fillColor=none;align=left;verticalAlign=top;spacingLeft=4;spacingRight=4;overflow=hidden;rotatable=0;points=[[0,0.5],[1,0.5]];portConstraint=eastwest;" parent="11" vertex="1"><mxGeometry y="112" width="200" height="26" as="geometry"/></mxCell><mxCell id="17" value="+ set(Point, T): void" style="text;strokeColor=none;fillColor=none;align=left;verticalAlign=top;spacingLeft=4;spacingRight=4;overflow=hidden;rotatable=0;points=[[0,0.5],[1,0.5]];portConstraint=eastwest;" parent="11" vertex="1"><mxGeometry y="138" width="200" height="26" as="geometry"/></mxCell><mxCell id="18" value="+ getSize(): int" style="text;strokeColor=none;fillColor=none;align=left;verticalAlign=top;spacingLeft=4;spacingRight=4;overflow=hidden;rotatable=0;points=[[0,0.5],[1,0.5]];portConstraint=eastwest;" parent="11" vertex="1"><mxGeometry y="164" width="200" height="26" as="geometry"/></mxCell><mxCell id="19" value="+ toString(): String" style="text;strokeColor=none;fillColor=none;align=left;verticalAlign=top;spacingLeft=4;spacingRight=4;overflow=hidden;rotatable=0;points=[[0,0.5],[1,0.5]];portConstraint=eastwest;" parent="11" vertex="1"><mxGeometry y="190" width="200" height="26" as="geometry"/></mxCell><mxCell id="20" value="- isInArray(Point) : boolean" style="text;strokeColor=none;fillColor=none;align=left;verticalAlign=top;spacingLeft=4;spacingRight=4;overflow=hidden;rotatable=0;points=[[0,0.5],[1,0.5]];portConstraint=eastwest;" parent="11" vertex="1"><mxGeometry y="216" width="200" height="26" as="geometry"/></mxCell><mxCell id="23" value="" style="endArrow=diamondThin;endFill=0;endSize=24;html=1;rounded=0;" parent="1" source="11" target="3GtVR0VW-QDkIM4Xzwnb-1" edge="1"><mxGeometry width="160" relative="1" as="geometry"><mxPoint x="410" y="250" as="sourcePoint"/><mxPoint x="420" y="90" as="targetPoint"/></mxGeometry></mxCell><mxCell id="24" value="&lt;&lt;Record&gt;&gt;&#10;BoardWord" style="swimlane;fontStyle=1;align=center;verticalAlign=top;childLayout=stackLayout;horizontal=1;startSize=40;horizontalStack=0;resizeParent=1;resizeParentMax=0;resizeLast=0;collapsible=1;marginBottom=0;" parent="1" vertex="1"><mxGeometry x="630" y="610" width="160" height="100" as="geometry"/></mxCell><mxCell id="25" value="+ tiles: List&lt;BoardTile&gt;" style="text;strokeColor=none;fillColor=none;align=left;verticalAlign=top;spacingLeft=4;spacingRight=4;overflow=hidden;rotatable=0;points=[[0,0.5],[1,0.5]];portConstraint=eastwest;" parent="24" vertex="1"><mxGeometry y="40" width="160" height="26" as="geometry"/></mxCell><mxCell id="26" value="" style="line;strokeWidth=1;fillColor=none;align=left;verticalAlign=middle;spacingTop=-1;spacingLeft=3;spacingRight=3;rotatable=0;labelPosition=right;points=[];portConstraint=eastwest;" parent="24" vertex="1"><mxGeometry y="66" width="160" height="8" as="geometry"/></mxCell><mxCell id="27" value="+ toString(): String" style="text;strokeColor=none;fillColor=none;align=left;verticalAlign=top;spacingLeft=4;spacingRight=4;overflow=hidden;rotatable=0;points=[[0,0.5],[1,0.5]];portConstraint=eastwest;" parent="24" vertex="1"><mxGeometry y="74" width="160" height="26" as="geometry"/></mxCell><mxCell id="28" value="" style="endArrow=diamondThin;endFill=0;endSize=24;html=1;rounded=0;" parent="1" source="24" target="3GtVR0VW-QDkIM4Xzwnb-1" edge="1"><mxGeometry width="160" relative="1" as="geometry"><mxPoint x="660" y="770" as="sourcePoint"/><mxPoint x="610" y="770" as="targetPoint"/></mxGeometry></mxCell></root></mxGraphModel></diagram><diagram id="0kUheaF3s_oTYIpv5bhT" name="Package-Private Board"><mxGraphModel dx="1029" dy="704" grid="1" gridSize="10" guides="1" tooltips="1" connect="1" arrows="1" fold="1" page="1" pageScale="1" pageWidth="850" pageHeight="1100" math="0" shadow="0"><root><mxCell id="ktofCeJ7xlvYMQVk22QA-0"/><mxCell id="ktofCeJ7xlvYMQVk22QA-1" parent="ktofCeJ7xlvYMQVk22QA-0"/><mxCell id="2kCUc1td7e-UeEeqGeQy-0" value="Board" style="swimlane;fontStyle=1;align=center;verticalAlign=top;childLayout=stackLayout;horizontal=1;startSize=26;horizontalStack=0;resizeParent=1;resizeParentMax=0;resizeLast=0;collapsible=1;marginBottom=0;" parent="ktofCeJ7xlvYMQVk22QA-1" vertex="1"><mxGeometry x="390" y="60" width="270" height="164" as="geometry"/></mxCell><mxCell id="2kCUc1td7e-UeEeqGeQy-2" value="" style="line;strokeWidth=1;fillColor=none;align=left;verticalAlign=middle;spacingTop=-1;spacingLeft=3;spacingRight=3;rotatable=0;labelPosition=right;points=[];portConstraint=eastwest;" parent="2kCUc1td7e-UeEeqGeQy-0" vertex="1"><mxGeometry y="26" width="270" height="8" as="geometry"/></mxCell><mxCell id="2kCUc1td7e-UeEeqGeQy-3" value="~ isStartTile(Point): boolean" style="text;strokeColor=none;fillColor=none;align=left;verticalAlign=top;spacingLeft=4;spacingRight=4;overflow=hidden;rotatable=0;points=[[0,0.5],[1,0.5]];portConstraint=eastwest;" parent="2kCUc1td7e-UeEeqGeQy-0" vertex="1"><mxGeometry y="34" width="270" height="26" as="geometry"/></mxCell><mxCell id="2kCUc1td7e-UeEeqGeQy-4" value="~ isBoardEmpty(): boolean" style="text;strokeColor=none;fillColor=none;align=left;verticalAlign=top;spacingLeft=4;spacingRight=4;overflow=hidden;rotatable=0;points=[[0,0.5],[1,0.5]];portConstraint=eastwest;" parent="2kCUc1td7e-UeEeqGeQy-0" vertex="1"><mxGeometry y="60" width="270" height="26" as="geometry"/></mxCell><mxCell id="2kCUc1td7e-UeEeqGeQy-5" value="~ isTaken(Point): boolean" style="text;strokeColor=none;fillColor=none;align=left;verticalAlign=top;spacingLeft=4;spacingRight=4;overflow=hidden;rotatable=0;points=[[0,0.5],[1,0.5]];portConstraint=eastwest;" parent="2kCUc1td7e-UeEeqGeQy-0" vertex="1"><mxGeometry y="86" width="270" height="26" as="geometry"/></mxCell><mxCell id="2kCUc1td7e-UeEeqGeQy-6" value="~ getPlacedWords(BoardPlaceEvent): boolean" style="text;strokeColor=none;fillColor=none;align=left;verticalAlign=top;spacingLeft=4;spacingRight=4;overflow=hidden;rotatable=0;points=[[0,0.5],[1,0.5]];portConstraint=eastwest;" parent="2kCUc1td7e-UeEeqGeQy-0" vertex="1"><mxGeometry y="112" width="270" height="26" as="geometry"/></mxCell><mxCell id="xPUl4rVVCjryGCxN2CGG-1" value="~ getFirstNonTakenPoint(Direction, Point): Point" style="text;strokeColor=none;fillColor=none;align=left;verticalAlign=top;spacingLeft=4;spacingRight=4;overflow=hidden;rotatable=0;points=[[0,0.5],[1,0.5]];portConstraint=eastwest;" parent="2kCUc1td7e-UeEeqGeQy-0" vertex="1"><mxGeometry y="138" width="270" height="26" as="geometry"/></mxCell></root></mxGraphModel></diagram><diagram id="9KoMzKN5wPC7EBhcTlWR" name="Public Board"><mxGraphModel dx="1029" dy="704" grid="1" gridSize="10" guides="1" tooltips="1" connect="1" arrows="1" fold="1" page="1" pageScale="1" pageWidth="850" pageHeight="1100" math="0" shadow="0"><root><mxCell id="tyPt18imVkpfdSQhNwZi-0"/><mxCell id="tyPt18imVkpfdSQhNwZi-1" parent="tyPt18imVkpfdSQhNwZi-0"/><mxCell id="qsSnh5o6wnB4-fUa2c6j-0" value="Board" style="swimlane;fontStyle=1;align=center;verticalAlign=top;childLayout=stackLayout;horizontal=1;startSize=26;horizontalStack=0;resizeParent=1;resizeParentMax=0;resizeLast=0;collapsible=1;marginBottom=0;" parent="tyPt18imVkpfdSQhNwZi-1" vertex="1"><mxGeometry x="430" y="50" width="340" height="188" as="geometry"/></mxCell><mxCell id="qsSnh5o6wnB4-fUa2c6j-1" value="+ MIN_WORD_SIZE: int = 2" style="text;strokeColor=none;fillColor=none;align=left;verticalAlign=top;spacingLeft=4;spacingRight=4;overflow=hidden;rotatable=0;points=[[0,0.5],[1,0.5]];portConstraint=eastwest;fontStyle=6" parent="qsSnh5o6wnB4-fUa2c6j-0" vertex="1"><mxGeometry y="26" width="340" height="24" as="geometry"/></mxCell><mxCell id="bcJJwIOo25nH8RLw-m7c-0" value="+  START_TILE_POINT: Point" style="text;strokeColor=none;fillColor=none;align=left;verticalAlign=top;spacingLeft=4;spacingRight=4;overflow=hidden;rotatable=0;points=[[0,0.5],[1,0.5]];portConstraint=eastwest;fontStyle=6" parent="qsSnh5o6wnB4-fUa2c6j-0" vertex="1"><mxGeometry y="50" width="340" height="26" as="geometry"/></mxCell><mxCell id="qsSnh5o6wnB4-fUa2c6j-2" value="" style="line;strokeWidth=1;fillColor=none;align=left;verticalAlign=middle;spacingTop=-1;spacingLeft=3;spacingRight=3;rotatable=0;labelPosition=right;points=[];portConstraint=eastwest;" parent="qsSnh5o6wnB4-fUa2c6j-0" vertex="1"><mxGeometry y="76" width="340" height="8" as="geometry"/></mxCell><mxCell id="qsSnh5o6wnB4-fUa2c6j-7" value="+ Board(boolean)" style="text;strokeColor=none;fillColor=none;align=left;verticalAlign=top;spacingLeft=4;spacingRight=4;overflow=hidden;rotatable=0;points=[[0,0.5],[1,0.5]];portConstraint=eastwest;" parent="qsSnh5o6wnB4-fUa2c6j-0" vertex="1"><mxGeometry y="84" width="340" height="26" as="geometry"/></mxCell><mxCell id="bcJJwIOo25nH8RLw-m7c-3" value="+ isValidPlacement(BoardPlaceEvent): BoardValidator.Status" style="text;strokeColor=none;fillColor=none;align=left;verticalAlign=top;spacingLeft=4;spacingRight=4;overflow=hidden;rotatable=0;points=[[0,0.5],[1,0.5]];portConstraint=eastwest;" parent="qsSnh5o6wnB4-fUa2c6j-0" vertex="1"><mxGeometry y="110" width="340" height="26" as="geometry"/></mxCell><mxCell id="bcJJwIOo25nH8RLw-m7c-4" value="+ placeWord(BoardPlaceEvent): int" style="text;strokeColor=none;fillColor=none;align=left;verticalAlign=top;spacingLeft=4;spacingRight=4;overflow=hidden;rotatable=0;points=[[0,0.5],[1,0.5]];portConstraint=eastwest;" parent="qsSnh5o6wnB4-fUa2c6j-0" vertex="1"><mxGeometry y="136" width="340" height="26" as="geometry"/></mxCell><mxCell id="PlZPtJyrFpkQMaGi1U0T-0" value="+ toString(): String" style="text;strokeColor=none;fillColor=none;align=left;verticalAlign=top;spacingLeft=4;spacingRight=4;overflow=hidden;rotatable=0;points=[[0,0.5],[1,0.5]];portConstraint=eastwest;" parent="qsSnh5o6wnB4-fUa2c6j-0" vertex="1"><mxGeometry y="162" width="340" height="26" as="geometry"/></mxCell><mxCell id="bcJJwIOo25nH8RLw-m7c-5" value="&lt;&lt;enum&gt;&gt;&#10;Direction" style="swimlane;fontStyle=1;align=center;verticalAlign=top;childLayout=stackLayout;horizontal=1;startSize=40;horizontalStack=0;resizeParent=1;resizeParentMax=0;resizeLast=0;collapsible=1;marginBottom=0;" parent="tyPt18imVkpfdSQhNwZi-1" vertex="1"><mxGeometry x="160" y="50" width="160" height="152" as="geometry"/></mxCell><mxCell id="bcJJwIOo25nH8RLw-m7c-9" value="+ RIGHT" style="text;strokeColor=none;fillColor=none;align=left;verticalAlign=top;spacingLeft=4;spacingRight=4;overflow=hidden;rotatable=0;points=[[0,0.5],[1,0.5]];portConstraint=eastwest;" parent="bcJJwIOo25nH8RLw-m7c-5" vertex="1"><mxGeometry y="40" width="160" height="26" as="geometry"/></mxCell><mxCell id="bcJJwIOo25nH8RLw-m7c-6" value="+ DOWN" style="text;strokeColor=none;fillColor=none;align=left;verticalAlign=top;spacingLeft=4;spacingRight=4;overflow=hidden;rotatable=0;points=[[0,0.5],[1,0.5]];portConstraint=eastwest;" parent="bcJJwIOo25nH8RLw-m7c-5" vertex="1"><mxGeometry y="66" width="160" height="26" as="geometry"/></mxCell><mxCell id="bcJJwIOo25nH8RLw-m7c-7" value="" style="line;strokeWidth=1;fillColor=none;align=left;verticalAlign=middle;spacingTop=-1;spacingLeft=3;spacingRight=3;rotatable=0;labelPosition=right;points=[];portConstraint=eastwest;" parent="bcJJwIOo25nH8RLw-m7c-5" vertex="1"><mxGeometry y="92" width="160" height="8" as="geometry"/></mxCell><mxCell id="bcJJwIOo25nH8RLw-m7c-8" value="+ Direction(String)" style="text;strokeColor=none;fillColor=none;align=left;verticalAlign=top;spacingLeft=4;spacingRight=4;overflow=hidden;rotatable=0;points=[[0,0.5],[1,0.5]];portConstraint=eastwest;" parent="bcJJwIOo25nH8RLw-m7c-5" vertex="1"><mxGeometry y="100" width="160" height="26" as="geometry"/></mxCell><mxCell id="bcJJwIOo25nH8RLw-m7c-10" value="+ toString(): String" style="text;strokeColor=none;fillColor=none;align=left;verticalAlign=top;spacingLeft=4;spacingRight=4;overflow=hidden;rotatable=0;points=[[0,0.5],[1,0.5]];portConstraint=eastwest;" parent="bcJJwIOo25nH8RLw-m7c-5" vertex="1"><mxGeometry y="126" width="160" height="26" as="geometry"/></mxCell><mxCell id="bcJJwIOo25nH8RLw-m7c-11" value="" style="endArrow=open;startArrow=circlePlus;endFill=0;startFill=0;endSize=8;html=1;rounded=0;" parent="tyPt18imVkpfdSQhNwZi-1" source="qsSnh5o6wnB4-fUa2c6j-0" target="bcJJwIOo25nH8RLw-m7c-5" edge="1"><mxGeometry width="160" relative="1" as="geometry"><mxPoint x="420" y="70" as="sourcePoint"/><mxPoint x="350" y="170" as="targetPoint"/></mxGeometry></mxCell></root></mxGraphModel></diagram></mxfile>